<svg width="10" height="15" viewBox="0 0 10 15" fill="none" xmlns="http://www.w3.org/2000/svg">
<path d="M4.99992 0.833374C2.41992 0.833374 0.333252 2.92004 0.333252 5.50004C0.333252 9.00004 4.99992 14.1667 4.99992 14.1667C4.99992 14.1667 9.66659 9.00004 9.66659 5.50004C9.66659 2.92004 7.57992 0.833374 4.99992 0.833374ZM1.66659 5.50004C1.66659 3.66004 3.15992 2.16671 4.99992 2.16671C6.83992 2.16671 8.33325 3.66004 8.33325 5.50004C8.33325 7.42004 6.41325 10.2934 4.99992 12.0867C3.61325 10.3067 1.66659 7.40004 1.66659 5.50004Z" fill="#0A453A"/>
<path d="M4.99992 7.16671C5.92039 7.16671 6.66659 6.42052 6.66659 5.50004C6.66659 4.57957 5.92039 3.83337 4.99992 3.83337C4.07944 3.83337 3.33325 4.57957 3.33325 5.50004C3.33325 6.42052 4.07944 7.16671 4.99992 7.16671Z" fill="#0A453A"/>
</svg>
