<svg width="57" height="63" viewBox="0 0 57 63" fill="none" xmlns="http://www.w3.org/2000/svg">
<rect x="14" y="9.5" width="40" height="35" fill="#4F40BF"/>
<path d="M34 62.5L14 44.5L54 44.5L34 62.5Z" fill="#4F40BF"/>
<path d="M7 9.5L7 0.5L46 0.5C50.4183 0.5 54 4.08172 54 8.5V9.5L7 9.5Z" fill="#4F40BF"/>
<path d="M0 9.5C0 8.3181 0.181061 7.14778 0.532844 6.05585C0.884626 4.96392 1.40024 3.97177 2.05025 3.13604C2.70026 2.30031 3.47194 1.63738 4.32122 1.18508C5.1705 0.732792 6.08075 0.5 7 0.5C7.91925 0.5 8.82951 0.732792 9.67878 1.18509C10.5281 1.63738 11.2997 2.30031 11.9497 3.13604C12.5998 3.97177 13.1154 4.96392 13.4672 6.05585C13.8189 7.14778 14 8.3181 14 9.5L7 9.5H0Z" fill="#2E256F"/>
</svg>
